<svg width="12" height="12" viewBox="0 0 12 12" fill="none" xmlns="http://www.w3.org/2000/svg">
<path d="M5.99992 10.875L5.94572 10.7937C5.56946 10.2293 5.38133 9.94711 5.13277 9.74282C4.91272 9.56196 4.65917 9.42626 4.38662 9.34349C4.07876 9.25 3.7396 9.25 3.06128 9.25H2.31659C1.70986 9.25 1.4065 9.25 1.17476 9.13192C0.97092 9.02806 0.805191 8.86233 0.701328 8.65849C0.583252 8.42675 0.583252 8.12339 0.583252 7.51667V2.85833C0.583252 2.25161 0.583252 1.94825 0.701328 1.71651C0.805191 1.51267 0.97092 1.34694 1.17476 1.24308C1.4065 1.125 1.70986 1.125 2.31659 1.125H2.53325C3.7467 1.125 4.35342 1.125 4.8169 1.36115C5.22458 1.56888 5.55604 1.90034 5.76377 2.30802C5.99992 2.7715 5.99992 3.37822 5.99992 4.59167M5.99992 10.875V4.59167M5.99992 10.875L6.05412 10.7937C6.43038 10.2293 6.61851 9.94711 6.86707 9.74282C7.08712 9.56196 7.34067 9.42626 7.61322 9.34349C7.92108 9.25 8.26024 9.25 8.93856 9.25H9.68325C10.29 9.25 10.5933 9.25 10.8251 9.13192C11.0289 9.02806 11.1946 8.86233 11.2985 8.65849C11.4166 8.42675 11.4166 8.12339 11.4166 7.51667V2.85833C11.4166 2.25161 11.4166 1.94825 11.2985 1.71651C11.1946 1.51267 11.0289 1.34694 10.8251 1.24308C10.5933 1.125 10.29 1.125 9.68325 1.125H9.46659C8.25314 1.125 7.64641 1.125 7.18294 1.36115C6.77526 1.56888 6.4438 1.90034 6.23607 2.30802C5.99992 2.7715 5.99992 3.37822 5.99992 4.59167" stroke="#4A4458" stroke-linecap="round" stroke-linejoin="round"/>
</svg>
