<svg width="14" height="16" viewBox="0 0 14 16" fill="none" xmlns="http://www.w3.org/2000/svg">
<path d="M9.66667 4.00028V3.46695C9.66667 2.72021 9.66667 2.34685 9.52134 2.06163C9.39351 1.81075 9.18954 1.60677 8.93865 1.47894C8.65344 1.33362 8.28007 1.33362 7.53333 1.33362H6.46667C5.71993 1.33362 5.34656 1.33362 5.06135 1.47894C4.81046 1.60677 4.60649 1.81075 4.47866 2.06163C4.33333 2.34685 4.33333 2.72021 4.33333 3.46695V4.00028M5.66667 7.66695V11.0003M8.33333 7.66695V11.0003M1 4.00028H13M11.6667 4.00028V11.467C11.6667 12.5871 11.6667 13.1471 11.4487 13.5749C11.2569 13.9513 10.951 14.2572 10.5746 14.449C10.1468 14.667 9.58677 14.667 8.46667 14.667H5.53333C4.41323 14.667 3.85318 14.667 3.42535 14.449C3.04903 14.2572 2.74307 13.9513 2.55132 13.5749C2.33333 13.1471 2.33333 12.5871 2.33333 11.467V4.00028" stroke="white" stroke-width="2" stroke-linecap="round" stroke-linejoin="round"/>
</svg>
