<svg width="25" height="24" viewBox="0 0 25 24" fill="none" xmlns="http://www.w3.org/2000/svg">
<mask id="mask0_852_5246" style="mask-type:alpha" maskUnits="userSpaceOnUse" x="0" y="0" width="25" height="24">
<rect x="0.5" width="24" height="24" fill="#D9D9D9"/>
</mask>
<g mask="url(#mask0_852_5246)">
<path d="M15.7727 21.4545C13.3364 21.4545 11.2727 20.6091 9.58182 18.9182C7.89091 17.2273 7.04545 15.1636 7.04545 12.7273C7.04545 10.2909 7.89091 8.22727 9.58182 6.53636C11.2727 4.84545 13.3364 4 15.7727 4C18.2091 4 20.2727 4.84545 21.9636 6.53636C23.6545 8.22727 24.5 10.2909 24.5 12.7273C24.5 15.1636 23.6545 17.2273 21.9636 18.9182C20.2727 20.6091 18.2091 21.4545 15.7727 21.4545ZM7.04545 21.1818C5.11818 20.6727 3.54545 19.6364 2.32727 18.0727C1.10909 16.5091 0.5 14.7273 0.5 12.7273C0.5 10.7273 1.10909 8.94545 2.32727 7.38182C3.54545 5.81818 5.11818 4.78182 7.04545 4.27273V6.56364C5.73636 7.01818 4.68182 7.80909 3.88182 8.93636C3.08182 10.0636 2.68182 11.3273 2.68182 12.7273C2.68182 14.1273 3.08182 15.3909 3.88182 16.5182C4.68182 17.6455 5.73636 18.4364 7.04545 18.8909V21.1818ZM15.7727 19.2727C17.5909 19.2727 19.1364 18.6364 20.4091 17.3636C21.6818 16.0909 22.3182 14.5455 22.3182 12.7273C22.3182 10.9091 21.6818 9.36364 20.4091 8.09091C19.1364 6.81818 17.5909 6.18182 15.7727 6.18182C13.9545 6.18182 12.4091 6.81818 11.1364 8.09091C9.86364 9.36364 9.22727 10.9091 9.22727 12.7273C9.22727 14.5455 9.86364 16.0909 11.1364 17.3636C12.4091 18.6364 13.9545 19.2727 15.7727 19.2727Z" fill="#1C1B1F"/>
<path d="M15.2481 17V8H15.8556V17H15.2481ZM16.8593 10.9707C16.8296 10.6871 16.7025 10.4668 16.4778 10.3098C16.2531 10.1527 15.9481 10.0742 15.563 10.0742C15.3012 10.0742 15.0802 10.1094 14.9 10.1797C14.7198 10.2477 14.5815 10.3426 14.4852 10.4645C14.3914 10.5863 14.3444 10.7246 14.3444 10.8793C14.3395 11.0082 14.3679 11.1207 14.4296 11.2168C14.4938 11.3129 14.5815 11.3961 14.6926 11.4664C14.8037 11.5344 14.9321 11.5941 15.0778 11.6457C15.2235 11.6949 15.379 11.7371 15.5444 11.7723L16.2259 11.927C16.5568 11.9973 16.8605 12.091 17.137 12.2082C17.4136 12.3254 17.6531 12.4695 17.8556 12.6406C18.058 12.8117 18.2148 13.0133 18.3259 13.2453C18.4395 13.4773 18.4975 13.7434 18.5 14.0434C18.4975 14.484 18.379 14.866 18.1444 15.1895C17.9123 15.5105 17.5765 15.7602 17.137 15.9383C16.7 16.1141 16.1728 16.202 15.5556 16.202C14.9432 16.202 14.4099 16.1129 13.9556 15.9348C13.5037 15.7566 13.1506 15.493 12.8963 15.1437C12.6444 14.7922 12.5123 14.3574 12.5 13.8395H14.0519C14.0691 14.0809 14.142 14.2824 14.2704 14.4441C14.4012 14.6035 14.5753 14.7242 14.7926 14.8062C15.0123 14.8859 15.2605 14.9258 15.537 14.9258C15.8086 14.9258 16.0444 14.8883 16.2444 14.8133C16.4469 14.7383 16.6037 14.634 16.7148 14.5004C16.8259 14.3668 16.8815 14.2133 16.8815 14.0398C16.8815 13.8781 16.8309 13.7422 16.7296 13.632C16.6309 13.5219 16.4852 13.4281 16.2926 13.3508C16.1025 13.2734 15.8691 13.2031 15.5926 13.1398L14.7667 12.943C14.1272 12.7953 13.6222 12.5645 13.2519 12.2504C12.8815 11.9363 12.6975 11.5133 12.7 10.9812C12.6975 10.5453 12.8198 10.1645 13.0667 9.83867C13.316 9.51289 13.658 9.25859 14.0926 9.07578C14.5272 8.89297 15.021 8.80156 15.5741 8.80156C16.137 8.80156 16.6284 8.89297 17.0481 9.07578C17.4704 9.25859 17.7988 9.51289 18.0333 9.83867C18.2679 10.1645 18.3889 10.5418 18.3963 10.9707H16.8593Z" fill="black"/>
</g>
</svg>
