<svg width="21" height="24" viewBox="0 0 21 24" fill="none" xmlns="http://www.w3.org/2000/svg">
<path d="M1.16667 23.6667C0.836111 23.6667 0.559028 23.5549 0.335417 23.3313C0.111806 23.1077 0 22.8306 0 22.5V16.6667C0 16.025 0.228472 15.4757 0.685417 15.0188C1.14236 14.5618 1.69167 14.3334 2.33333 14.3334V9.66671C2.33333 9.02504 2.56181 8.47574 3.01875 8.01879C3.47569 7.56185 4.025 7.33337 4.66667 7.33337H9.33333V5.64171C8.98333 5.40837 8.70139 5.12643 8.4875 4.79587C8.27361 4.46532 8.16667 4.06671 8.16667 3.60004C8.16667 3.30837 8.225 3.02157 8.34167 2.73962C8.45833 2.45768 8.63333 2.20004 8.86667 1.96671L10.5 0.333374L12.1333 1.96671C12.3667 2.20004 12.5417 2.45768 12.6583 2.73962C12.775 3.02157 12.8333 3.30837 12.8333 3.60004C12.8333 4.06671 12.7264 4.46532 12.5125 4.79587C12.2986 5.12643 12.0167 5.40837 11.6667 5.64171V7.33337H16.3333C16.975 7.33337 17.5243 7.56185 17.9813 8.01879C18.4382 8.47574 18.6667 9.02504 18.6667 9.66671V14.3334C19.3083 14.3334 19.8576 14.5618 20.3146 15.0188C20.7715 15.4757 21 16.025 21 16.6667V22.5C21 22.8306 20.8882 23.1077 20.6646 23.3313C20.441 23.5549 20.1639 23.6667 19.8333 23.6667H1.16667ZM4.66667 14.3334H16.3333V9.66671H4.66667V14.3334ZM2.33333 21.3334H18.6667V16.6667H2.33333V21.3334Z" fill="#1C1B1F"/>
</svg>
