<svg width="22" height="23" viewBox="0 0 22 23" fill="none" xmlns="http://www.w3.org/2000/svg">
<mask id="mask0_1147_1441" style="mask-type:alpha" maskUnits="userSpaceOnUse" x="0" y="0" width="22" height="23">
<rect x="0.446289" y="0.00012207" width="21.1077" height="22.5714" fill="#D9D9D9"/>
</mask>
<g mask="url(#mask0_1147_1441)">
<path d="M13.8785 20.1776C11.7357 20.1776 9.92076 19.3825 8.43363 17.7922C6.9465 16.202 6.20293 14.2612 6.20293 11.9698C6.20293 9.67847 6.9465 7.73767 8.43363 6.14741C9.92076 4.55715 11.7357 3.76202 13.8785 3.76202C16.0212 3.76202 17.8361 4.55715 19.3233 6.14741C20.8104 7.73767 21.554 9.67847 21.554 11.9698C21.554 14.2612 20.8104 16.202 19.3233 17.7922C17.8361 19.3825 16.0212 20.1776 13.8785 20.1776ZM6.20293 19.9211C4.50792 19.4423 3.12473 18.4677 2.05335 16.9971C0.981977 15.5265 0.446289 13.8508 0.446289 11.9698C0.446289 10.0889 0.981977 8.41311 2.05335 6.94254C3.12473 5.47198 4.50792 4.49731 6.20293 4.01852V6.17306C5.0516 6.60055 4.12414 7.34438 3.42055 8.40456C2.71696 9.46473 2.36517 10.6531 2.36517 11.9698C2.36517 13.2865 2.71696 14.4749 3.42055 15.5351C4.12414 16.5952 5.0516 17.3391 6.20293 17.7666V19.9211ZM13.8785 18.1257C15.4775 18.1257 16.8367 17.5272 17.9561 16.3302C19.0754 15.1332 19.6351 13.6798 19.6351 11.9698C19.6351 10.2599 19.0754 8.8064 17.9561 7.60943C16.8367 6.41246 15.4775 5.81397 13.8785 5.81397C12.2794 5.81397 10.9202 6.41246 9.80083 7.60943C8.68149 8.8064 8.12181 10.2599 8.12181 11.9698C8.12181 13.6798 8.68149 15.1332 9.80083 16.3302C10.9202 17.5272 12.2794 18.1257 13.8785 18.1257Z" fill="#941BBC"/>
<path d="M13.417 15.9882V7.52393H13.9512V15.9882H13.417ZM14.8339 10.3178C14.8079 10.0511 14.696 9.84389 14.4984 9.69621C14.3008 9.54852 14.0326 9.47468 13.6938 9.47468C13.4637 9.47468 13.2693 9.50774 13.1108 9.57387C12.9522 9.63779 12.8306 9.72707 12.7459 9.84169C12.6634 9.95631 12.6222 10.0864 12.6222 10.2318C12.6178 10.3531 12.6428 10.4589 12.6971 10.5492C12.7535 10.6396 12.8306 10.7179 12.9284 10.784C13.0261 10.8479 13.139 10.9041 13.2671 10.9526C13.3952 10.9989 13.5321 11.0386 13.6776 11.0717L14.2769 11.2171C14.5679 11.2833 14.835 11.3714 15.0782 11.4816C15.3214 11.5919 15.5321 11.7274 15.7101 11.8883C15.8882 12.0492 16.0261 12.2388 16.1238 12.457C16.2237 12.6752 16.2748 12.9254 16.2769 13.2076C16.2748 13.622 16.1705 13.9813 15.9642 14.2854C15.7601 14.5874 15.4648 14.8222 15.0782 14.9897C14.6938 15.155 14.2302 15.2377 13.6873 15.2377C13.1488 15.2377 12.6797 15.1539 12.2801 14.9864C11.8827 14.8189 11.5722 14.5709 11.3485 14.2425C11.127 13.9118 11.0109 13.5029 11 13.0158H12.3648C12.38 13.2428 12.4441 13.4324 12.557 13.5845C12.6721 13.7344 12.8252 13.8479 13.0163 13.925C13.2096 14 13.4278 14.0375 13.671 14.0375C13.9099 14.0375 14.1173 14.0022 14.2932 13.9317C14.4713 13.8611 14.6092 13.763 14.7069 13.6374C14.8046 13.5117 14.8535 13.3674 14.8535 13.2043C14.8535 13.0522 14.8089 12.9243 14.7199 12.8207C14.633 12.7171 14.5049 12.6289 14.3355 12.5562C14.1683 12.4835 13.9631 12.4173 13.7199 12.3578L12.9935 12.1727C12.4311 12.0338 11.987 11.8167 11.6612 11.5213C11.3355 11.2259 11.1737 10.8281 11.1759 10.3277C11.1737 9.91773 11.2812 9.55954 11.4984 9.25315C11.7177 8.94676 12.0185 8.7076 12.4007 8.53567C12.7829 8.36374 13.2172 8.27778 13.7036 8.27778C14.1987 8.27778 14.6309 8.36374 15 8.53567C15.3714 8.7076 15.6602 8.94676 15.8665 9.25315C16.0728 9.55954 16.1792 9.91443 16.1857 10.3178H14.8339Z" fill="#941BBC"/>
</g>
</svg>
