<svg width="23" height="24" viewBox="0 0 23 24" fill="none" xmlns="http://www.w3.org/2000/svg">
<path d="M11.4999 15.5C7.80148 15.5 4.5125 17.2857 2.41857 20.057C1.9679 20.6534 1.74256 20.9516 1.74993 21.3547C1.75563 21.666 1.95116 22.0589 2.19617 22.2511C2.51329 22.5 2.95275 22.5 3.83168 22.5H19.1681C20.0471 22.5 20.4865 22.5 20.8036 22.2511C21.0487 22.0589 21.2442 21.666 21.2499 21.3547C21.2573 20.9516 21.0319 20.6534 20.5812 20.057C18.4873 17.2857 15.1983 15.5 11.4999 15.5Z" stroke="#344054" stroke-width="2" stroke-linecap="round" stroke-linejoin="round"/>
<path d="M11.4999 12C14.3994 12 16.7499 9.64949 16.7499 6.75C16.7499 3.8505 14.3994 1.5 11.4999 1.5C8.60041 1.5 6.24991 3.8505 6.24991 6.75C6.24991 9.64949 8.60041 12 11.4999 12Z" stroke="#344054" stroke-width="2" stroke-linecap="round" stroke-linejoin="round"/>
</svg>
