<svg width="13" height="12" viewBox="0 0 13 12" fill="none" xmlns="http://www.w3.org/2000/svg">
<path d="M2 0C1.17157 0 0.5 0.671573 0.5 1.5V3.5C0.5 4.32843 1.17157 5 2 5H4C4.82843 5 5.5 4.32843 5.5 3.5V1.5C5.5 0.671573 4.82843 0 4 0H2ZM9 0C8.17157 0 7.5 0.671573 7.5 1.5V3.5C7.5 4.32843 8.17157 5 9 5H11C11.8284 5 12.5 4.32843 12.5 3.5V1.5C12.5 0.671573 11.8284 0 11 0H9ZM2 7C1.17157 7 0.5 7.67157 0.5 8.5V10.5C0.5 11.3284 1.17157 12 2 12H4C4.82843 12 5.5 11.3284 5.5 10.5V8.5C5.5 7.67157 4.82843 7 4 7H2ZM9 7C8.17157 7 7.5 7.67157 7.5 8.5V10.5C7.5 11.3284 8.17157 12 9 12H11C11.8284 12 12.5 11.3284 12.5 10.5V8.5C12.5 7.67157 11.8284 7 11 7H9Z" fill="#212121"/>
</svg>
