<svg width="18" height="20" viewBox="0 0 18 20" fill="none" xmlns="http://www.w3.org/2000/svg">
<path d="M9.86427 1.59964C9.55528 1.34265 9.40079 1.21416 9.2302 1.16477C9.07967 1.12118 8.92102 1.12118 8.77049 1.16477C8.5999 1.21416 8.44541 1.34265 8.13642 1.59964L2.17147 6.56077C1.77274 6.8924 1.57337 7.05822 1.42974 7.26588C1.30252 7.44982 1.20774 7.65705 1.15007 7.87737C1.08496 8.12609 1.08496 8.39618 1.08496 8.93635V15.7406C1.08496 16.7941 1.08496 17.3208 1.27668 17.7231C1.44532 18.0771 1.71441 18.3648 2.04538 18.5451C2.42164 18.7502 2.9142 18.7502 3.89932 18.7502H5.65829C5.90457 18.7502 6.02771 18.7502 6.12178 18.6989C6.20452 18.6538 6.27179 18.5819 6.31395 18.4934C6.36188 18.3928 6.36188 18.2611 6.36188 17.9978V11.7906C6.36188 11.2639 6.36188 11.0006 6.45774 10.7994C6.54206 10.6224 6.67661 10.4785 6.84209 10.3884C7.03022 10.2859 7.2765 10.2859 7.76906 10.2859H10.2316C10.7242 10.2859 10.9705 10.2859 11.1586 10.3884C11.3241 10.4785 11.4586 10.6224 11.5429 10.7994C11.6388 11.0006 11.6388 11.2639 11.6388 11.7906V17.9978C11.6388 18.2611 11.6388 18.3928 11.6867 18.4934C11.7289 18.5819 11.7962 18.6538 11.8789 18.6989C11.973 18.7502 12.0961 18.7502 12.3424 18.7502H14.1014C15.0865 18.7502 15.579 18.7502 15.9553 18.5451C16.2863 18.3648 16.5554 18.0771 16.724 17.7231C16.9157 17.3208 16.9157 16.7941 16.9157 15.7406V8.93635C16.9157 8.39618 16.9157 8.12609 16.8506 7.87737C16.793 7.65705 16.6982 7.44982 16.5709 7.26588C16.4273 7.05822 16.228 6.8924 15.8292 6.56077L9.86427 1.59964Z" stroke="#941BBC" stroke-width="1.6" stroke-linecap="round" stroke-linejoin="round"/>
</svg>
