<svg width="25" height="23" viewBox="0 0 25 23" fill="none" xmlns="http://www.w3.org/2000/svg">
<path d="M0.833496 10.8334L6.66683 0.333374L12.5002 10.8334H0.833496ZM6.66683 22.5C5.3835 22.5 4.28488 22.0431 3.371 21.1292C2.45711 20.2153 2.00016 19.1167 2.00016 17.8334C2.00016 16.5306 2.45711 15.4271 3.371 14.523C4.28488 13.6188 5.3835 13.1667 6.66683 13.1667C7.95016 13.1667 9.04877 13.6237 9.96266 14.5375C10.8766 15.4514 11.3335 16.55 11.3335 17.8334C11.3335 19.1167 10.8766 20.2153 9.96266 21.1292C9.04877 22.0431 7.95016 22.5 6.66683 22.5ZM6.66683 20.1667C7.3085 20.1667 7.8578 19.9382 8.31475 19.4813C8.77169 19.0243 9.00016 18.475 9.00016 17.8334C9.00016 17.1917 8.77169 16.6424 8.31475 16.1855C7.8578 15.7285 7.3085 15.5 6.66683 15.5C6.02516 15.5 5.47586 15.7285 5.01891 16.1855C4.56197 16.6424 4.3335 17.1917 4.3335 17.8334C4.3335 18.475 4.56197 19.0243 5.01891 19.4813C5.47586 19.9382 6.02516 20.1667 6.66683 20.1667ZM4.80016 8.50004H8.5335L6.66683 5.14587L4.80016 8.50004ZM13.6668 22.5V13.1667H23.0002V22.5H13.6668ZM16.0002 20.1667H20.6668V15.5H16.0002V20.1667ZM18.3335 10.8334C17.2252 9.90004 16.2967 9.11254 15.5481 8.47087C14.7995 7.82921 14.2016 7.26532 13.7543 6.77921C13.3071 6.2931 12.9863 5.83615 12.7918 5.40837C12.5974 4.9806 12.5002 4.52365 12.5002 4.03754C12.5002 3.16254 12.8064 2.42365 13.4189 1.82087C14.0314 1.2181 14.7946 0.916707 15.7085 0.916707C16.2335 0.916707 16.7245 1.03824 17.1814 1.28129C17.6384 1.52435 18.0224 1.85976 18.3335 2.28754C18.6446 1.85976 19.0286 1.52435 19.4856 1.28129C19.9425 1.03824 20.4335 0.916707 20.9585 0.916707C21.8724 0.916707 22.6356 1.2181 23.2481 1.82087C23.8606 2.42365 24.1668 3.16254 24.1668 4.03754C24.1668 4.52365 24.0696 4.9806 23.8752 5.40837C23.6807 5.83615 23.3599 6.2931 22.9127 6.77921C22.4654 7.26532 21.8675 7.82921 21.1189 8.47087C20.3703 9.11254 19.4418 9.90004 18.3335 10.8334ZM18.3335 7.77087C19.7335 6.60421 20.6668 5.77782 21.1335 5.29171C21.6002 4.8056 21.8335 4.40699 21.8335 4.09587C21.8335 3.8431 21.7606 3.63893 21.6147 3.48337C21.4689 3.32782 21.2696 3.25004 21.0168 3.25004C20.8224 3.25004 20.6328 3.30351 20.4481 3.41046C20.2634 3.5174 20.0349 3.70698 19.7627 3.97921L18.3335 5.35004L16.9043 3.97921C16.6321 3.70698 16.4036 3.5174 16.2189 3.41046C16.0342 3.30351 15.8446 3.25004 15.6502 3.25004C15.3974 3.25004 15.1981 3.32782 15.0522 3.48337C14.9064 3.63893 14.8335 3.8431 14.8335 4.09587C14.8335 4.40699 15.0668 4.8056 15.5335 5.29171C16.0002 5.77782 16.9335 6.60421 18.3335 7.77087Z" fill="#1C1B1F"/>
</svg>
