<svg width="23" height="26" viewBox="0 0 23 26" fill="none" xmlns="http://www.w3.org/2000/svg">
<path d="M7.32858 5.58958H19.2933C20.3033 5.58958 21.1294 6.16392 21.1294 6.86564C21.1294 7.56736 20.3033 8.14169 19.2933 8.14169H17.8881V13.9675C17.8881 14.2037 17.6052 14.3246 17.4342 14.1618L15.6063 12.4202C15.5027 12.3214 15.3394 12.3214 15.2358 12.4202L13.4079 14.1618C13.2369 14.3246 12.954 14.2037 12.954 13.9675V9.44711C12.954 8.72595 12.3693 8.14169 11.6486 8.14169H4.63094C4.33428 8.14169 4.09375 8.38222 4.09375 8.67889V12.6405V22.8075C4.09375 24.4916 5.53951 25.8687 7.30655 25.8687H19.5368C21.3038 25.8687 22.7496 24.4916 22.7496 22.8075V7.57686C22.7496 5.89316 21.3038 4.51562 19.5368 4.51562H7.32815C7.03148 4.51562 6.79095 4.75615 6.79095 5.05282C6.79095 5.34949 7.03148 5.59001 7.32815 5.59001L7.32858 5.58958Z" fill="#941BBC"/>
<path d="M0.984863 25.8682V0.5" stroke="#941BBC" stroke-width="1.25" stroke-miterlimit="10"/>
<path d="M0.25 0.800293H14.9438M16.2877 4.92598C16.6906 4.5192 16.9471 3.68016 16.9471 3.06696C16.9471 1.81941 15.9193 0.808066 14.6515 0.808066" stroke="#941BBC" stroke-width="1.25" stroke-miterlimit="10"/>
</svg>
