<svg width="13" height="10" viewBox="0 0 13 10" fill="none" xmlns="http://www.w3.org/2000/svg">
<path d="M0.5 0.75C0.5 0.335786 0.835786 0 1.25 0H8.75C9.16421 0 9.5 0.335786 9.5 0.75C9.5 1.16421 9.16421 1.5 8.75 1.5H1.25C0.835786 1.5 0.5 1.16421 0.5 0.75ZM0.5 8.75C0.5 8.33579 0.835786 8 1.25 8H7.75C8.16421 8 8.5 8.33579 8.5 8.75C8.5 9.16421 8.16421 9.5 7.75 9.5H1.25C0.835786 9.5 0.5 9.16421 0.5 8.75ZM1.25 4C0.835786 4 0.5 4.33579 0.5 4.75C0.5 5.16421 0.835786 5.5 1.25 5.5H11.75C12.1642 5.5 12.5 5.16421 12.5 4.75C12.5 4.33579 12.1642 4 11.75 4H1.25Z" fill="#212121"/>
</svg>
