<svg width="24" height="24" viewBox="0 0 24 24" fill="none" xmlns="http://www.w3.org/2000/svg">
<mask id="path-1-inside-1_908_255" fill="white">
<path d="M22.9753 24.0001H22.647C22.2841 23.9163 22.0075 23.7013 21.7497 23.4417C20.4231 22.1075 19.0865 20.7827 17.7641 19.4439C17.6073 19.2851 17.4963 19.2886 17.3084 19.3671C14.7615 20.4329 12.3591 20.1593 10.11 18.5626C9.9561 18.4531 9.80929 18.3974 9.61844 18.398C6.87778 18.4032 4.13653 18.4073 1.39587 18.3933C1.1187 18.3921 0.825075 18.3142 0.56845 18.2029C0.252514 18.0652 0.122146 17.7435 0 17.4376C0 12.3441 0 7.24993 0 2.15637C0.0182045 2.12415 0.0405197 2.09368 0.0528518 2.05911C0.249578 1.51243 0.626587 1.23118 1.2062 1.2054C1.32952 1.20012 1.45284 1.20481 1.56559 1.20481C1.62079 1.01848 1.65544 0.850317 1.72062 0.694458C1.88035 0.311255 2.21214 0.131958 2.57858 0.00012207C4.98569 0.00012207 7.39279 0.00012207 9.79931 0.00012207C10.1464 0.157153 10.4934 0.31477 10.8716 0.485864C11.0871 0.228638 11.4395 0.0915283 11.8159 0.00012207C14.2224 0.00012207 16.6295 0.00012207 19.0366 0.00012207C19.1071 0.0300049 19.177 0.0610596 19.2474 0.0903564C19.6274 0.247974 19.8905 0.525708 19.9598 0.925903C19.9997 1.15793 20.0772 1.2095 20.2986 1.20833C21.1219 1.20481 21.6076 1.697 21.6082 2.52083C21.6105 5.91692 21.6129 9.3136 21.607 12.7097C21.6046 14.0796 21.2811 15.3704 20.5411 16.5335C20.2499 16.9917 19.9046 17.4154 19.5546 17.8941C19.5963 17.9257 19.672 17.9702 19.7325 18.0306C21.0033 19.2997 22.2717 20.5712 23.5425 21.8404C23.8497 22.1468 24.0517 22.4937 23.9883 22.9443C23.9049 23.5366 23.5273 23.8531 22.9753 24.0001ZM7.20487 0.798169C7.20487 0.915942 7.20487 1.00793 7.20487 1.09993C7.20487 3.06047 7.20487 5.02102 7.2037 6.98157C7.2037 7.08235 7.2037 7.18606 7.18138 7.28391C7.11738 7.56868 6.81847 7.68528 6.57946 7.51829C6.50429 7.46555 6.44263 7.39055 6.3845 7.31848C5.99398 6.83391 5.60523 6.34758 5.20179 5.84309C5.10783 5.95911 5.03032 6.05461 4.95339 6.15012C4.61631 6.57083 4.28041 6.99211 3.94333 7.41223C3.81942 7.56633 3.66322 7.63958 3.46825 7.57161C3.28327 7.50715 3.20987 7.35598 3.19695 7.17083C3.19225 7.1011 3.19518 7.0302 3.19518 6.95989C3.19518 4.99934 3.19518 3.03879 3.19518 1.07825C3.19518 0.988599 3.19518 0.89895 3.19518 0.812231C2.5134 0.761841 2.39595 0.869653 2.39595 1.51008C2.39595 5.69661 2.39595 9.88313 2.39595 14.0702V14.3825H7.374C7.35873 14.2882 7.34699 14.2056 7.33172 14.1236C7.13852 13.0958 7.15672 12.0704 7.41569 11.0585C7.85436 9.34465 8.79513 7.9677 10.235 6.93235C10.3155 6.87493 10.3977 6.75364 10.3983 6.66106C10.4083 4.98938 10.4089 3.31829 10.403 1.64661C10.4012 1.1304 10.0618 0.8052 9.5421 0.799927C9.08111 0.795239 8.62013 0.798755 8.15914 0.798755C7.84849 0.798755 7.53902 0.798169 7.20487 0.798169ZM11.2046 6.33352C14.0997 5.08137 16.7487 5.43586 19.1911 7.40872C19.1987 7.35129 19.2063 7.322 19.2063 7.29211C19.2069 5.29231 19.2093 3.29251 19.2052 1.2927C19.2046 0.937036 19.0466 0.799341 18.672 0.799341C16.4839 0.798169 14.2958 0.798169 12.1078 0.799341C11.5252 0.799341 11.2063 1.1175 11.2046 1.69524C11.2028 2.47629 11.2046 3.25793 11.2046 4.03899C11.2046 4.79661 11.2046 5.55305 11.2046 6.33352ZM20.8072 12.7906C20.786 9.255 17.9262 6.40383 14.4015 6.40442C10.8652 6.40442 7.98121 9.30188 8.00646 12.8187C8.03171 16.3531 10.8716 19.206 14.4191 19.1931C18.0043 19.1802 20.7796 16.3179 20.8072 12.7906ZM9.03061 17.5988C8.85268 17.3691 8.69764 17.1868 8.56434 16.99C8.46686 16.8458 8.35822 16.7902 8.1797 16.7913C6.53131 16.799 4.88292 16.796 3.23453 16.796C2.83638 16.796 2.43764 16.8007 2.03949 16.7931C1.75644 16.7872 1.61492 16.639 1.59789 16.3554C1.59378 16.2851 1.59671 16.2148 1.59671 16.1445C1.59671 11.5366 1.59671 6.92883 1.59671 2.32102V2.02805C0.951332 1.94192 0.798062 2.07083 0.798062 2.67317C0.798062 7.44504 0.798062 12.2169 0.798062 16.9888C0.798062 17.4839 0.910813 17.5988 1.40057 17.5988C3.84585 17.5988 6.29112 17.5988 8.73581 17.5988C8.81803 17.5988 8.90024 17.5988 9.02944 17.5988H9.03061ZM4.01145 0.807544V6.02532C4.07664 5.95383 4.11892 5.91223 4.15533 5.86653C4.39022 5.57473 4.61807 5.27707 4.85943 4.99114C5.06731 4.74504 5.32276 4.74797 5.53828 4.98586C5.61697 5.07258 5.68568 5.1675 5.75908 5.25891C5.95698 5.50383 6.1543 5.74934 6.38685 6.03762V0.807544H4.01145ZM20.0091 2.00696V2.32454C20.0091 4.05774 20.0232 5.79094 20.0003 7.52356C19.9938 8.02629 20.0432 8.47395 20.4084 8.85364C20.5241 8.97376 20.5864 9.14543 20.6756 9.29192C20.7044 9.33938 20.7414 9.38157 20.8007 9.46008C20.8048 9.37454 20.8089 9.33704 20.8089 9.30012C20.8089 7.04426 20.8089 4.78782 20.8089 2.53196C20.8089 2.46985 20.8042 2.40715 20.7925 2.34622C20.7514 2.13469 20.6222 2.01868 20.4061 2.00872C20.2833 2.00286 20.16 2.00696 20.0091 2.00696ZM18.9438 18.381C18.7236 18.5404 18.5146 18.6915 18.2949 18.8509C19.7102 20.2659 21.0943 21.6523 22.482 23.0351C22.6881 23.2407 22.9095 23.2466 23.0833 23.0755C23.2566 22.905 23.2483 22.6859 23.0422 22.4761C22.5495 21.9751 22.0509 21.4806 21.5535 20.9843C20.6921 20.1241 19.83 19.2646 18.9438 18.381ZM2.40417 15.9822H7.94186C7.85613 15.7771 7.76217 15.5978 7.70638 15.4068C7.6547 15.2292 7.55839 15.1906 7.38516 15.1911C5.809 15.1976 4.23284 15.1947 2.65668 15.1952C2.57447 15.1952 2.49167 15.2023 2.40358 15.2064L2.40417 15.9822Z"/>
<path d="M20.0068 12.8023C19.9997 15.8913 17.454 18.4273 14.3898 18.3974C11.2821 18.3675 8.80628 15.8837 8.80746 12.7982C8.80922 9.70266 11.3332 7.18489 14.4156 7.2054C17.5092 7.22532 20.0144 9.73254 20.0068 12.8023ZM19.2052 12.8075C19.2222 10.1767 17.0682 8.01809 14.4121 8.0052C11.7783 7.99231 9.63371 10.1175 9.60728 12.7671C9.58086 15.4161 11.7343 17.5882 14.3939 17.5958C17.0335 17.6034 19.1881 15.4589 19.2052 12.8075Z"/>
</mask>
<path d="M22.9753 24.0001H22.647C22.2841 23.9163 22.0075 23.7013 21.7497 23.4417C20.4231 22.1075 19.0865 20.7827 17.7641 19.4439C17.6073 19.2851 17.4963 19.2886 17.3084 19.3671C14.7615 20.4329 12.3591 20.1593 10.11 18.5626C9.9561 18.4531 9.80929 18.3974 9.61844 18.398C6.87778 18.4032 4.13653 18.4073 1.39587 18.3933C1.1187 18.3921 0.825075 18.3142 0.56845 18.2029C0.252514 18.0652 0.122146 17.7435 0 17.4376C0 12.3441 0 7.24993 0 2.15637C0.0182045 2.12415 0.0405197 2.09368 0.0528518 2.05911C0.249578 1.51243 0.626587 1.23118 1.2062 1.2054C1.32952 1.20012 1.45284 1.20481 1.56559 1.20481C1.62079 1.01848 1.65544 0.850317 1.72062 0.694458C1.88035 0.311255 2.21214 0.131958 2.57858 0.00012207C4.98569 0.00012207 7.39279 0.00012207 9.79931 0.00012207C10.1464 0.157153 10.4934 0.31477 10.8716 0.485864C11.0871 0.228638 11.4395 0.0915283 11.8159 0.00012207C14.2224 0.00012207 16.6295 0.00012207 19.0366 0.00012207C19.1071 0.0300049 19.177 0.0610596 19.2474 0.0903564C19.6274 0.247974 19.8905 0.525708 19.9598 0.925903C19.9997 1.15793 20.0772 1.2095 20.2986 1.20833C21.1219 1.20481 21.6076 1.697 21.6082 2.52083C21.6105 5.91692 21.6129 9.3136 21.607 12.7097C21.6046 14.0796 21.2811 15.3704 20.5411 16.5335C20.2499 16.9917 19.9046 17.4154 19.5546 17.8941C19.5963 17.9257 19.672 17.9702 19.7325 18.0306C21.0033 19.2997 22.2717 20.5712 23.5425 21.8404C23.8497 22.1468 24.0517 22.4937 23.9883 22.9443C23.9049 23.5366 23.5273 23.8531 22.9753 24.0001ZM7.20487 0.798169C7.20487 0.915942 7.20487 1.00793 7.20487 1.09993C7.20487 3.06047 7.20487 5.02102 7.2037 6.98157C7.2037 7.08235 7.2037 7.18606 7.18138 7.28391C7.11738 7.56868 6.81847 7.68528 6.57946 7.51829C6.50429 7.46555 6.44263 7.39055 6.3845 7.31848C5.99398 6.83391 5.60523 6.34758 5.20179 5.84309C5.10783 5.95911 5.03032 6.05461 4.95339 6.15012C4.61631 6.57083 4.28041 6.99211 3.94333 7.41223C3.81942 7.56633 3.66322 7.63958 3.46825 7.57161C3.28327 7.50715 3.20987 7.35598 3.19695 7.17083C3.19225 7.1011 3.19518 7.0302 3.19518 6.95989C3.19518 4.99934 3.19518 3.03879 3.19518 1.07825C3.19518 0.988599 3.19518 0.89895 3.19518 0.812231C2.5134 0.761841 2.39595 0.869653 2.39595 1.51008C2.39595 5.69661 2.39595 9.88313 2.39595 14.0702V14.3825H7.374C7.35873 14.2882 7.34699 14.2056 7.33172 14.1236C7.13852 13.0958 7.15672 12.0704 7.41569 11.0585C7.85436 9.34465 8.79513 7.9677 10.235 6.93235C10.3155 6.87493 10.3977 6.75364 10.3983 6.66106C10.4083 4.98938 10.4089 3.31829 10.403 1.64661C10.4012 1.1304 10.0618 0.8052 9.5421 0.799927C9.08111 0.795239 8.62013 0.798755 8.15914 0.798755C7.84849 0.798755 7.53902 0.798169 7.20487 0.798169ZM11.2046 6.33352C14.0997 5.08137 16.7487 5.43586 19.1911 7.40872C19.1987 7.35129 19.2063 7.322 19.2063 7.29211C19.2069 5.29231 19.2093 3.29251 19.2052 1.2927C19.2046 0.937036 19.0466 0.799341 18.672 0.799341C16.4839 0.798169 14.2958 0.798169 12.1078 0.799341C11.5252 0.799341 11.2063 1.1175 11.2046 1.69524C11.2028 2.47629 11.2046 3.25793 11.2046 4.03899C11.2046 4.79661 11.2046 5.55305 11.2046 6.33352ZM20.8072 12.7906C20.786 9.255 17.9262 6.40383 14.4015 6.40442C10.8652 6.40442 7.98121 9.30188 8.00646 12.8187C8.03171 16.3531 10.8716 19.206 14.4191 19.1931C18.0043 19.1802 20.7796 16.3179 20.8072 12.7906ZM9.03061 17.5988C8.85268 17.3691 8.69764 17.1868 8.56434 16.99C8.46686 16.8458 8.35822 16.7902 8.1797 16.7913C6.53131 16.799 4.88292 16.796 3.23453 16.796C2.83638 16.796 2.43764 16.8007 2.03949 16.7931C1.75644 16.7872 1.61492 16.639 1.59789 16.3554C1.59378 16.2851 1.59671 16.2148 1.59671 16.1445C1.59671 11.5366 1.59671 6.92883 1.59671 2.32102V2.02805C0.951332 1.94192 0.798062 2.07083 0.798062 2.67317C0.798062 7.44504 0.798062 12.2169 0.798062 16.9888C0.798062 17.4839 0.910813 17.5988 1.40057 17.5988C3.84585 17.5988 6.29112 17.5988 8.73581 17.5988C8.81803 17.5988 8.90024 17.5988 9.02944 17.5988H9.03061ZM4.01145 0.807544V6.02532C4.07664 5.95383 4.11892 5.91223 4.15533 5.86653C4.39022 5.57473 4.61807 5.27707 4.85943 4.99114C5.06731 4.74504 5.32276 4.74797 5.53828 4.98586C5.61697 5.07258 5.68568 5.1675 5.75908 5.25891C5.95698 5.50383 6.1543 5.74934 6.38685 6.03762V0.807544H4.01145ZM20.0091 2.00696V2.32454C20.0091 4.05774 20.0232 5.79094 20.0003 7.52356C19.9938 8.02629 20.0432 8.47395 20.4084 8.85364C20.5241 8.97376 20.5864 9.14543 20.6756 9.29192C20.7044 9.33938 20.7414 9.38157 20.8007 9.46008C20.8048 9.37454 20.8089 9.33704 20.8089 9.30012C20.8089 7.04426 20.8089 4.78782 20.8089 2.53196C20.8089 2.46985 20.8042 2.40715 20.7925 2.34622C20.7514 2.13469 20.6222 2.01868 20.4061 2.00872C20.2833 2.00286 20.16 2.00696 20.0091 2.00696ZM18.9438 18.381C18.7236 18.5404 18.5146 18.6915 18.2949 18.8509C19.7102 20.2659 21.0943 21.6523 22.482 23.0351C22.6881 23.2407 22.9095 23.2466 23.0833 23.0755C23.2566 22.905 23.2483 22.6859 23.0422 22.4761C22.5495 21.9751 22.0509 21.4806 21.5535 20.9843C20.6921 20.1241 19.83 19.2646 18.9438 18.381ZM2.40417 15.9822H7.94186C7.85613 15.7771 7.76217 15.5978 7.70638 15.4068C7.6547 15.2292 7.55839 15.1906 7.38516 15.1911C5.809 15.1976 4.23284 15.1947 2.65668 15.1952C2.57447 15.1952 2.49167 15.2023 2.40358 15.2064L2.40417 15.9822Z" fill="#941BBC"/>
<path d="M20.0068 12.8023C19.9997 15.8913 17.454 18.4273 14.3898 18.3974C11.2821 18.3675 8.80628 15.8837 8.80746 12.7982C8.80922 9.70266 11.3332 7.18489 14.4156 7.2054C17.5092 7.22532 20.0144 9.73254 20.0068 12.8023ZM19.2052 12.8075C19.2222 10.1767 17.0682 8.01809 14.4121 8.0052C11.7783 7.99231 9.63371 10.1175 9.60728 12.7671C9.58086 15.4161 11.7343 17.5882 14.3939 17.5958C17.0335 17.6034 19.1881 15.4589 19.2052 12.8075Z" fill="#941BBC"/>
<path d="M22.9753 24.0001H22.647C22.2841 23.9163 22.0075 23.7013 21.7497 23.4417C20.4231 22.1075 19.0865 20.7827 17.7641 19.4439C17.6073 19.2851 17.4963 19.2886 17.3084 19.3671C14.7615 20.4329 12.3591 20.1593 10.11 18.5626C9.9561 18.4531 9.80929 18.3974 9.61844 18.398C6.87778 18.4032 4.13653 18.4073 1.39587 18.3933C1.1187 18.3921 0.825075 18.3142 0.56845 18.2029C0.252514 18.0652 0.122146 17.7435 0 17.4376C0 12.3441 0 7.24993 0 2.15637C0.0182045 2.12415 0.0405197 2.09368 0.0528518 2.05911C0.249578 1.51243 0.626587 1.23118 1.2062 1.2054C1.32952 1.20012 1.45284 1.20481 1.56559 1.20481C1.62079 1.01848 1.65544 0.850317 1.72062 0.694458C1.88035 0.311255 2.21214 0.131958 2.57858 0.00012207C4.98569 0.00012207 7.39279 0.00012207 9.79931 0.00012207C10.1464 0.157153 10.4934 0.31477 10.8716 0.485864C11.0871 0.228638 11.4395 0.0915283 11.8159 0.00012207C14.2224 0.00012207 16.6295 0.00012207 19.0366 0.00012207C19.1071 0.0300049 19.177 0.0610596 19.2474 0.0903564C19.6274 0.247974 19.8905 0.525708 19.9598 0.925903C19.9997 1.15793 20.0772 1.2095 20.2986 1.20833C21.1219 1.20481 21.6076 1.697 21.6082 2.52083C21.6105 5.91692 21.6129 9.3136 21.607 12.7097C21.6046 14.0796 21.2811 15.3704 20.5411 16.5335C20.2499 16.9917 19.9046 17.4154 19.5546 17.8941C19.5963 17.9257 19.672 17.9702 19.7325 18.0306C21.0033 19.2997 22.2717 20.5712 23.5425 21.8404C23.8497 22.1468 24.0517 22.4937 23.9883 22.9443C23.9049 23.5366 23.5273 23.8531 22.9753 24.0001ZM7.20487 0.798169C7.20487 0.915942 7.20487 1.00793 7.20487 1.09993C7.20487 3.06047 7.20487 5.02102 7.2037 6.98157C7.2037 7.08235 7.2037 7.18606 7.18138 7.28391C7.11738 7.56868 6.81847 7.68528 6.57946 7.51829C6.50429 7.46555 6.44263 7.39055 6.3845 7.31848C5.99398 6.83391 5.60523 6.34758 5.20179 5.84309C5.10783 5.95911 5.03032 6.05461 4.95339 6.15012C4.61631 6.57083 4.28041 6.99211 3.94333 7.41223C3.81942 7.56633 3.66322 7.63958 3.46825 7.57161C3.28327 7.50715 3.20987 7.35598 3.19695 7.17083C3.19225 7.1011 3.19518 7.0302 3.19518 6.95989C3.19518 4.99934 3.19518 3.03879 3.19518 1.07825C3.19518 0.988599 3.19518 0.89895 3.19518 0.812231C2.5134 0.761841 2.39595 0.869653 2.39595 1.51008C2.39595 5.69661 2.39595 9.88313 2.39595 14.0702V14.3825H7.374C7.35873 14.2882 7.34699 14.2056 7.33172 14.1236C7.13852 13.0958 7.15672 12.0704 7.41569 11.0585C7.85436 9.34465 8.79513 7.9677 10.235 6.93235C10.3155 6.87493 10.3977 6.75364 10.3983 6.66106C10.4083 4.98938 10.4089 3.31829 10.403 1.64661C10.4012 1.1304 10.0618 0.8052 9.5421 0.799927C9.08111 0.795239 8.62013 0.798755 8.15914 0.798755C7.84849 0.798755 7.53902 0.798169 7.20487 0.798169ZM11.2046 6.33352C14.0997 5.08137 16.7487 5.43586 19.1911 7.40872C19.1987 7.35129 19.2063 7.322 19.2063 7.29211C19.2069 5.29231 19.2093 3.29251 19.2052 1.2927C19.2046 0.937036 19.0466 0.799341 18.672 0.799341C16.4839 0.798169 14.2958 0.798169 12.1078 0.799341C11.5252 0.799341 11.2063 1.1175 11.2046 1.69524C11.2028 2.47629 11.2046 3.25793 11.2046 4.03899C11.2046 4.79661 11.2046 5.55305 11.2046 6.33352ZM20.8072 12.7906C20.786 9.255 17.9262 6.40383 14.4015 6.40442C10.8652 6.40442 7.98121 9.30188 8.00646 12.8187C8.03171 16.3531 10.8716 19.206 14.4191 19.1931C18.0043 19.1802 20.7796 16.3179 20.8072 12.7906ZM9.03061 17.5988C8.85268 17.3691 8.69764 17.1868 8.56434 16.99C8.46686 16.8458 8.35822 16.7902 8.1797 16.7913C6.53131 16.799 4.88292 16.796 3.23453 16.796C2.83638 16.796 2.43764 16.8007 2.03949 16.7931C1.75644 16.7872 1.61492 16.639 1.59789 16.3554C1.59378 16.2851 1.59671 16.2148 1.59671 16.1445C1.59671 11.5366 1.59671 6.92883 1.59671 2.32102V2.02805C0.951332 1.94192 0.798062 2.07083 0.798062 2.67317C0.798062 7.44504 0.798062 12.2169 0.798062 16.9888C0.798062 17.4839 0.910813 17.5988 1.40057 17.5988C3.84585 17.5988 6.29112 17.5988 8.73581 17.5988C8.81803 17.5988 8.90024 17.5988 9.02944 17.5988H9.03061ZM4.01145 0.807544V6.02532C4.07664 5.95383 4.11892 5.91223 4.15533 5.86653C4.39022 5.57473 4.61807 5.27707 4.85943 4.99114C5.06731 4.74504 5.32276 4.74797 5.53828 4.98586C5.61697 5.07258 5.68568 5.1675 5.75908 5.25891C5.95698 5.50383 6.1543 5.74934 6.38685 6.03762V0.807544H4.01145ZM20.0091 2.00696V2.32454C20.0091 4.05774 20.0232 5.79094 20.0003 7.52356C19.9938 8.02629 20.0432 8.47395 20.4084 8.85364C20.5241 8.97376 20.5864 9.14543 20.6756 9.29192C20.7044 9.33938 20.7414 9.38157 20.8007 9.46008C20.8048 9.37454 20.8089 9.33704 20.8089 9.30012C20.8089 7.04426 20.8089 4.78782 20.8089 2.53196C20.8089 2.46985 20.8042 2.40715 20.7925 2.34622C20.7514 2.13469 20.6222 2.01868 20.4061 2.00872C20.2833 2.00286 20.16 2.00696 20.0091 2.00696ZM18.9438 18.381C18.7236 18.5404 18.5146 18.6915 18.2949 18.8509C19.7102 20.2659 21.0943 21.6523 22.482 23.0351C22.6881 23.2407 22.9095 23.2466 23.0833 23.0755C23.2566 22.905 23.2483 22.6859 23.0422 22.4761C22.5495 21.9751 22.0509 21.4806 21.5535 20.9843C20.6921 20.1241 19.83 19.2646 18.9438 18.381ZM2.40417 15.9822H7.94186C7.85613 15.7771 7.76217 15.5978 7.70638 15.4068C7.6547 15.2292 7.55839 15.1906 7.38516 15.1911C5.809 15.1976 4.23284 15.1947 2.65668 15.1952C2.57447 15.1952 2.49167 15.2023 2.40358 15.2064L2.40417 15.9822Z" stroke="#941BBC" stroke-width="4" mask="url(#path-1-inside-1_908_255)"/>
<path d="M20.0068 12.8023C19.9997 15.8913 17.454 18.4273 14.3898 18.3974C11.2821 18.3675 8.80628 15.8837 8.80746 12.7982C8.80922 9.70266 11.3332 7.18489 14.4156 7.2054C17.5092 7.22532 20.0144 9.73254 20.0068 12.8023ZM19.2052 12.8075C19.2222 10.1767 17.0682 8.01809 14.4121 8.0052C11.7783 7.99231 9.63371 10.1175 9.60728 12.7671C9.58086 15.4161 11.7343 17.5882 14.3939 17.5958C17.0335 17.6034 19.1881 15.4589 19.2052 12.8075Z" stroke="#941BBC" stroke-width="4" mask="url(#path-1-inside-1_908_255)"/>
</svg>
