<svg width="22" height="23" viewBox="0 0 22 23" fill="none" xmlns="http://www.w3.org/2000/svg">
<path d="M21.1009 22.5716H4.82821C4.79738 22.558 4.76766 22.5392 4.73574 22.5328C3.77535 22.3376 3.03566 21.5594 2.97622 20.5154C2.91513 19.4398 2.81496 18.3482 3.12262 17.2455C2.89532 17.2455 2.66911 17.2584 2.44512 17.2432C1.48472 17.1767 0.604687 16.3656 0.513327 15.3416C0.434624 14.4617 0.423617 13.5636 0.490211 12.6824C0.572766 11.5903 1.31906 10.8232 2.33394 10.6545C2.59371 10.6116 2.86119 10.624 3.14738 10.6099C2.85954 9.96505 2.9454 9.28967 2.94375 8.62664C2.94265 7.96595 2.8645 7.2941 3.14848 6.63753C2.97457 6.63753 2.83808 6.64047 2.70214 6.63753C1.35484 6.60168 0.462142 5.62299 0.461042 4.18171C0.461042 3.55042 0.454437 2.91854 0.463243 2.28724C0.478653 1.23038 1.1435 0.338693 2.10114 0.0741846C2.18644 0.0506727 2.2712 0.0248096 2.35596 0.00012207C7.76662 0.00012207 13.1773 0.00012207 18.5874 0.00012207C18.7294 0.129438 18.916 0.231127 19.0035 0.393946C19.1647 0.694899 19.0381 0.962934 18.8251 1.20276C17.8807 2.26667 17.7866 4.00244 18.6006 5.15099C18.682 5.26561 18.7668 5.32087 18.9077 5.31851C19.5318 5.3097 20.1559 5.32792 20.7795 5.3097C21.1548 5.29912 21.4135 5.44254 21.5533 5.81873V6.12732C21.4587 6.2684 21.3766 6.4224 21.2677 6.54936C20.3007 7.67441 20.2842 9.53244 21.2319 10.6622C21.3491 10.8015 21.4471 10.9596 21.5539 11.1089V11.4616C21.3932 11.8325 21.1229 11.9659 20.7437 11.9524C20.1268 11.9306 19.5081 11.95 18.8901 11.9436C18.7685 11.9424 18.6898 11.9812 18.6149 12.0858C17.8692 13.1321 17.862 14.7168 18.5978 15.7719C18.6854 15.8971 18.78 15.9435 18.9253 15.9418C19.5434 15.9336 20.1614 15.9518 20.7789 15.9336C21.1548 15.9224 21.4141 16.0658 21.5539 16.4426V16.7512C21.4592 16.8923 21.3772 17.0463 21.2682 17.1732C20.3012 18.2988 20.2842 20.1534 21.2324 21.2854C21.3497 21.4253 21.4471 21.5835 21.5539 21.7328V22.0854C21.4559 22.3041 21.3051 22.4657 21.1009 22.5704V22.5716ZM17.2395 1.33266C17.163 1.32854 17.1108 1.32267 17.0585 1.32267C12.2664 1.32267 7.47437 1.32208 2.68287 1.32267C2.09288 1.32267 1.70047 1.74294 1.69772 2.3713C1.69496 2.97379 1.69607 3.57628 1.69772 4.17878C1.69772 4.28869 1.69662 4.40096 1.71753 4.50735C1.8188 5.02873 2.19085 5.3144 2.76928 5.3144C7.52005 5.31558 12.2708 5.31499 17.0216 5.3144C17.0871 5.3144 17.152 5.30676 17.2406 5.30088C16.9533 4.65901 16.813 4.0089 16.8113 3.32353C16.8097 2.63052 16.9544 1.97453 17.2395 1.33266ZM19.714 17.2737C19.6287 17.269 19.5681 17.2626 19.5076 17.2626C14.7315 17.2626 9.95487 17.2614 5.17879 17.2626C4.56073 17.2626 4.17987 17.6746 4.17657 18.3376C4.17382 18.9325 4.17547 19.5273 4.17657 20.1222C4.17767 20.8505 4.55247 21.249 5.23658 21.249C9.9857 21.249 14.7343 21.249 19.4834 21.249H19.7239C19.1482 19.9135 19.151 18.6004 19.7145 17.2737H19.714ZM15.3457 11.9577C15.3457 12.047 15.3457 12.1258 15.3457 12.2046C15.3457 12.8805 15.3507 13.5559 15.3435 14.2319C15.338 14.7868 14.9076 15.0777 14.4327 14.8538C14.163 14.7262 13.9016 14.5793 13.6286 14.4611C13.5471 14.4259 13.4288 14.4264 13.3468 14.4623C13.0744 14.581 12.8124 14.728 12.5427 14.8555C12.0732 15.0777 11.634 14.7785 11.6296 14.2295C11.6241 13.5829 11.628 12.937 11.628 12.2904C11.628 12.1828 11.628 12.0747 11.628 11.9553C11.5664 11.9518 11.5267 11.9477 11.4871 11.9477C8.54208 11.9477 5.59762 11.9459 2.6526 11.9489C2.09343 11.9489 1.70047 12.3803 1.69717 12.984C1.69386 13.5641 1.69552 14.1443 1.69717 14.725C1.69717 14.8567 1.69166 14.9919 1.71423 15.12C1.80944 15.6543 2.1903 15.94 2.7979 15.94C7.53436 15.94 12.2708 15.94 17.0073 15.94C17.0788 15.94 17.1498 15.9336 17.2362 15.9288C16.665 14.5898 16.6699 13.2773 17.2335 11.9583H15.3452L15.3457 11.9577ZM19.7118 6.65575H10.3864C10.3864 7.40696 10.388 8.14053 10.3858 8.8741C10.3836 9.48071 9.94992 9.7752 9.43148 9.52362C9.13208 9.37843 8.83323 9.1151 8.53493 9.11627C8.22837 9.11804 7.92292 9.37667 7.61747 9.52362C7.09572 9.77578 6.67194 9.48659 6.66973 8.87175C6.66698 8.19578 6.66423 7.51982 6.67249 6.84385C6.67469 6.67633 6.62405 6.63048 6.4727 6.63401C6.04011 6.64341 5.60752 6.63459 5.17494 6.63812C4.55853 6.64224 4.17877 7.05252 4.17547 7.71732C4.17272 8.29747 4.17492 8.87822 4.17547 9.45837C4.17547 10.2372 4.53596 10.624 5.26134 10.6246C9.9989 10.6246 14.7359 10.6246 19.4735 10.6246H19.7217C19.1499 9.29673 19.1477 7.98359 19.7118 6.65575ZM14.103 11.9589H12.8762V13.2538C13.2868 12.9187 13.6897 12.9446 14.103 13.2356V11.9589ZM9.14198 6.6534H7.92182V7.93598C8.3357 7.60564 8.73416 7.62562 9.14198 7.93833V6.6534Z" fill="black"/>
</svg>
