<svg width="18" height="21" viewBox="0 0 18 21" fill="none" xmlns="http://www.w3.org/2000/svg">
<path d="M11.638 17.2657C11.638 18.8239 10.4567 20.0871 8.99952 20.0871C7.54234 20.0871 6.36106 18.8239 6.36106 17.2657M10.5795 5.26385C10.9625 4.84071 11.1982 4.26418 11.1982 3.62878C11.1982 2.33025 10.2138 1.27759 8.99952 1.27759C7.7852 1.27759 6.8008 2.33025 6.8008 3.62878C6.8008 4.26418 7.03651 4.84071 7.41952 5.26385M14.2764 9.92997C14.2764 8.63293 13.7205 7.38902 12.7309 6.47188C11.7413 5.55474 10.399 5.03949 8.99952 5.03949C7.6 5.03949 6.25779 5.55474 5.26818 6.47188C4.27856 7.38902 3.7226 8.63293 3.7226 9.92997C3.7226 12.0759 3.22493 13.6454 2.60395 14.7684C1.8962 16.0484 1.54233 16.6883 1.55631 16.8412C1.57229 17.0161 1.60173 17.0713 1.73438 17.175C1.85032 17.2657 2.43284 17.2657 3.59788 17.2657H14.4012C15.5662 17.2657 16.1487 17.2657 16.2647 17.175C16.3973 17.0713 16.4267 17.0161 16.4427 16.8412C16.4567 16.6883 16.1028 16.0484 15.3951 14.7684C14.7741 13.6454 14.2764 12.076 14.2764 9.92997Z" stroke="black" stroke-width="1.8" stroke-linecap="round" stroke-linejoin="round"/>
</svg>
