<svg width="18" height="22" viewBox="0 0 18 22" fill="none" xmlns="http://www.w3.org/2000/svg">
<path d="M11.6382 17.8692C11.6382 19.4274 10.4569 20.6906 8.99977 20.6906C7.54258 20.6906 6.36131 19.4274 6.36131 17.8692M10.5798 5.86737C10.9628 5.44423 11.1985 4.8677 11.1985 4.23229C11.1985 2.93377 10.2141 1.8811 8.99977 1.8811C7.78545 1.8811 6.80105 2.93377 6.80105 4.23229C6.80105 4.8677 7.03675 5.44423 7.41976 5.86737M14.2767 10.5335C14.2767 9.23645 13.7207 7.99254 12.7311 7.0754C11.7415 6.15825 10.3993 5.64301 8.99977 5.64301C7.60024 5.64301 6.25803 6.15825 5.26842 7.0754C4.2788 7.99254 3.72285 9.23645 3.72285 10.5335C3.72285 12.6795 3.22517 14.2489 2.60419 15.3719C1.89645 16.6519 1.54258 17.2918 1.55655 17.4447C1.57254 17.6196 1.60198 17.6748 1.73462 17.7785C1.85057 17.8692 2.43309 17.8692 3.59812 17.8692H14.4014C15.5664 17.8692 16.149 17.8692 16.2649 17.7785C16.3976 17.6748 16.427 17.6196 16.443 17.4447C16.457 17.2918 16.1031 16.6519 15.3953 15.3719C14.7744 14.2489 14.2767 12.6795 14.2767 10.5335Z" stroke="#941BBC" stroke-width="1.8" stroke-linecap="round" stroke-linejoin="round"/>
</svg>
